<?xml version="1.0" standalone="no"?>
<!DOCTYPE svg PUBLIC "-//W3C//DTD SVG 20010904//EN"
 "http://www.w3.org/TR/2001/REC-SVG-20010904/DTD/svg10.dtd">
<svg version="1.0" xmlns="http://www.w3.org/2000/svg"
 width="1140.000000pt" height="1280.000000pt" viewBox="0 0 1140.000000 1280.000000"
 preserveAspectRatio="xMidYMid meet">
<g transform="translate(0.000000,1280.000000) scale(0.100000,-0.100000)"
fill="#000000" stroke="none">
<path d="M7635 12771 c-44 -15 -116 -40 -160 -55 -166 -57 -303 -151 -441
-304 -143 -159 -230 -286 -320 -464 -19 -39 -54 -93 -76 -121 -51 -65 -81
-127 -152 -309 -31 -80 -74 -173 -96 -206 -25 -40 -47 -93 -64 -156 -14 -53
-61 -192 -105 -309 -87 -232 -125 -353 -136 -435 -4 -30 -22 -98 -40 -151 -67
-195 -107 -386 -186 -881 -52 -326 -57 -484 -21 -666 42 -212 136 -452 226
-578 103 -144 361 -347 581 -456 145 -72 277 -117 535 -182 245 -62 404 -77
638 -59 318 23 570 102 792 246 69 45 260 235 352 350 66 84 171 248 200 313
60 138 96 275 153 587 37 199 37 201 31 400 -7 284 -41 556 -111 900 -19 94
-43 229 -55 300 -43 272 -101 501 -196 773 -36 103 -72 214 -79 248 -20 87
-46 150 -135 319 -43 83 -90 184 -105 225 -22 62 -34 80 -68 105 -39 28 -86
87 -209 259 -39 54 -67 79 -150 133 -142 92 -277 158 -377 182 -107 27 -129
26 -226 -8z"/>
<path d="M3497 12760 c-105 -27 -299 -140 -412 -241 -184 -164 -306 -335 -446
-624 -165 -342 -331 -865 -428 -1355 -133 -666 -181 -1221 -136 -1565 40 -306
128 -563 280 -816 85 -139 160 -234 261 -327 296 -274 693 -413 1139 -399 190
6 229 13 610 103 328 79 639 255 872 497 238 246 363 546 363 868 0 118 -35
419 -76 649 -110 627 -292 1231 -564 1880 -233 554 -458 896 -745 1127 -87 70
-261 161 -360 188 -71 19 -302 29 -358 15z"/>
<path d="M10090 8994 c-56 -15 -169 -73 -250 -127 -25 -17 -116 -100 -203
-186 -153 -150 -160 -159 -241 -301 -190 -330 -325 -627 -469 -1030 -208 -584
-247 -709 -278 -888 -23 -136 -25 -309 -4 -407 8 -38 15 -115 15 -170 0 -58 7
-126 15 -160 54 -211 241 -445 448 -562 130 -73 303 -150 437 -196 379 -127
797 -120 1080 19 80 40 107 60 173 128 87 91 104 109 220 221 98 96 147 178
213 355 26 69 57 153 70 187 45 120 90 411 81 523 -8 99 -37 330 -47 375 -6
22 -19 137 -30 255 -44 459 -113 806 -208 1035 -16 39 -37 95 -47 125 -27 85
-102 231 -200 390 -152 244 -300 371 -486 415 -80 19 -217 18 -289 -1z"/>
<path d="M1002 8981 c-234 -67 -383 -220 -572 -584 -85 -164 -116 -241 -174
-432 -104 -346 -153 -621 -191 -1070 -9 -104 -21 -210 -26 -235 -17 -74 -39
-230 -39 -278 0 -64 38 -323 60 -412 115 -455 395 -852 695 -985 167 -73 347
-108 560 -108 348 0 631 100 902 317 343 276 521 753 482 1294 -13 194 -35
298 -121 577 -148 481 -172 542 -369 937 -172 343 -198 390 -306 532 -187 248
-382 402 -570 451 -80 21 -251 19 -331 -4z"/>
<path d="M5380 7169 c-562 -23 -1001 -116 -1355 -289 -218 -106 -363 -208
-511 -362 -112 -115 -180 -223 -428 -672 -129 -233 -227 -389 -319 -505 -80
-101 -316 -266 -932 -651 -429 -269 -749 -483 -889 -596 -549 -442 -876 -1060
-876 -1658 0 -256 42 -454 187 -886 106 -315 139 -398 217 -545 255 -481 645
-815 1096 -938 155 -42 397 -62 588 -47 265 21 468 61 932 187 360 97 491 130
629 159 l114 23 141 -19 c78 -11 220 -33 316 -50 847 -148 894 -152 1530 -140
614 12 1011 59 1565 187 91 20 124 24 190 18 177 -14 357 -58 880 -213 263
-79 409 -114 561 -136 138 -20 427 -40 483 -33 318 41 479 87 691 198 241 126
470 334 617 560 59 91 213 392 276 539 266 626 325 1245 166 1735 -62 188
-208 448 -354 630 -275 343 -557 564 -1330 1045 -630 392 -841 553 -996 762
-82 111 -150 223 -276 458 -218 404 -281 499 -422 641 -114 113 -259 212 -446
304 -494 244 -1111 333 -2045 294z"/>
</g>
</svg>
