<?xml version="1.0" encoding="iso-8859-1"?>
<!-- Generator: Adobe Illustrator 16.0.0, SVG Export Plug-In . SVG Version: 6.00 Build 0)  -->
<!DOCTYPE svg PUBLIC "-//W3C//DTD SVG 1.1//EN" "http://www.w3.org/Graphics/SVG/1.1/DTD/svg11.dtd">
<svg version="1.1" id="Capa_1" xmlns="http://www.w3.org/2000/svg" xmlns:xlink="http://www.w3.org/1999/xlink" x="0px" y="0px"
	 width="42.5px" height="42.5px" viewBox="0 0 42.5 42.5" style="enable-background:new 0 0 42.5 42.5;" xml:space="preserve">
<g>
	<path d="M27.598,20.002V39c0,1.934-1.566,3.5-3.5,3.5h-5.695c-1.932,0-3.5-1.566-3.5-3.5V20.002c0-1.934,1.568-3.5,3.5-3.5h5.695
		C26.028,16.502,27.598,18.068,27.598,20.002z M24.098,0h-5.695c-1.932,0-3.5,1.566-3.5,3.5v6c0,1.934,1.568,3.5,3.5,3.5h5.695
		c1.934,0,3.5-1.566,3.5-3.5v-6C27.598,1.566,26.028,0,24.098,0z"/>
</g>
<g>
</g>
<g>
</g>
<g>
</g>
<g>
</g>
<g>
</g>
<g>
</g>
<g>
</g>
<g>
</g>
<g>
</g>
<g>
</g>
<g>
</g>
<g>
</g>
<g>
</g>
<g>
</g>
<g>
</g>
</svg>
