<?xml version="1.0" encoding="iso-8859-1"?>
<!-- Generator: Adobe Illustrator 16.0.0, SVG Export Plug-In . SVG Version: 6.00 Build 0)  -->
<!DOCTYPE svg PUBLIC "-//W3C//DTD SVG 1.1//EN" "http://www.w3.org/Graphics/SVG/1.1/DTD/svg11.dtd">
<svg version="1.1" id="Capa_1" xmlns="http://www.w3.org/2000/svg" xmlns:xlink="http://www.w3.org/1999/xlink" x="0px" y="0px"
	 width="37px" height="37px" viewBox="0 0 37 37" style="enable-background:new 0 0 37 37;" xml:space="preserve">
<g>
	<path d="M36.75,8.5V35c0,1.104-0.895,2-2,2H8.25c-1.104,0-2-0.896-2-2V8.5c0-1.104,0.896-2,2-2h26.5
		C35.855,6.5,36.75,7.396,36.75,8.5z M30.75,2c0-1.104-0.895-2-2-2H2.25c-1.104,0-2,0.896-2,2v26.5c0,1.104,0.896,2,2,2
		c1.105,0,2-0.896,2-2V4h24.5C29.855,4,30.75,3.104,30.75,2z"/>
</g>
<g>
</g>
<g>
</g>
<g>
</g>
<g>
</g>
<g>
</g>
<g>
</g>
<g>
</g>
<g>
</g>
<g>
</g>
<g>
</g>
<g>
</g>
<g>
</g>
<g>
</g>
<g>
</g>
<g>
</g>
</svg>
