<?xml version="1.0" encoding="iso-8859-1"?>
<!-- Generator: Adobe Illustrator 16.0.0, SVG Export Plug-In . SVG Version: 6.00 Build 0)  -->
<!DOCTYPE svg PUBLIC "-//W3C//DTD SVG 1.1//EN" "http://www.w3.org/Graphics/SVG/1.1/DTD/svg11.dtd">
<svg version="1.1" id="Capa_1" xmlns="http://www.w3.org/2000/svg" xmlns:xlink="http://www.w3.org/1999/xlink" x="0px" y="0px"
	 width="40.289px" height="40.289px" viewBox="0 0 40.289 40.289" style="enable-background:new 0 0 40.289 40.289;"
	 xml:space="preserve">
<g>
	<path d="M26.842,6.379h-0.5V2.5c0-1.381-1.118-2.5-2.5-2.5h-7.395c-1.381,0-2.5,1.119-2.5,2.5v3.879h-0.5
		c-1.381,0-2.5,1.119-2.5,2.5v28.91c0,1.381,1.119,2.5,2.5,2.5h13.395c1.382,0,2.5-1.119,2.5-2.5V8.879
		C29.342,7.499,28.224,6.379,26.842,6.379z M19.313,5h-2.334V2.666h2.334V5z M23.313,5h-2.334V2.666h2.334V5z"/>
</g>
<g>
</g>
<g>
</g>
<g>
</g>
<g>
</g>
<g>
</g>
<g>
</g>
<g>
</g>
<g>
</g>
<g>
</g>
<g>
</g>
<g>
</g>
<g>
</g>
<g>
</g>
<g>
</g>
<g>
</g>
</svg>
