<?xml version="1.0" encoding="iso-8859-1"?>
<!-- Generator: Adobe Illustrator 19.0.0, SVG Export Plug-In . SVG Version: 6.00 Build 0)  -->
<svg version="1.1" id="Layer_1" xmlns="http://www.w3.org/2000/svg" xmlns:xlink="http://www.w3.org/1999/xlink" x="0px" y="0px"
	 viewBox="0 0 512.012 512.012" style="enable-background:new 0 0 512.012 512.012;" xml:space="preserve">
<path style="fill:#FFAB00;" d="M154.719,72.403C126.866,43.201,63.24,25.069,56.077,23.097l-16.174-4.451l-4.136,16.258
	C19.989,96.919,23.148,160.8,44.661,214.781L154.719,72.403z"/>
<path style="fill:#D37B93;" d="M130.907,95.115c-14.004-14.682-45.394-27.695-67.04-35.116
	c-7.499,39.045-6.724,78.225,2.153,113.907L130.907,95.115z"/>
<path style="fill:#BD7F00;" d="M357.3,72.403c27.853-29.202,91.479-47.334,98.642-49.306l16.174-4.451l4.137,16.258
	c15.777,62.015,12.619,125.897-8.894,179.878L357.3,72.403"/>
<path style="fill:#9D5B6E;" d="M381.112,95.114c14.004-14.682,45.394-27.694,67.04-35.116c7.499,39.045,6.724,78.225-2.153,113.907
	L381.112,95.114"/>
<path style="fill:#FFAB00;" d="M256.01,493.366c-62.826,0-120.222-18.795-161.612-52.922
	c-44.874-36.999-68.592-88.731-68.592-149.601c0-61.004,24.331-123.408,66.754-171.206c21.304-24.004,45.843-42.99,72.937-56.432
	c28.944-14.361,59.397-21.642,90.514-21.642c31.116,0,61.57,7.281,90.515,21.642c27.093,13.442,51.632,32.428,72.936,56.432
	c42.422,47.799,66.753,110.202,66.753,171.206c0,60.87-23.719,112.602-68.592,149.601C376.23,474.57,318.836,493.366,256.01,493.366
	"/>
<g>
	
		<rect x="1.835" y="269.367" transform="matrix(-0.9741 -0.2262 0.2262 -0.9741 83.4642 581.205)" style="fill:#444242;" width="146.39" height="32.906"/>
	
		<rect x="58.566" y="317.032" transform="matrix(-0.2262 -0.9741 0.9741 -0.2262 -288.1247 551.5704)" style="fill:#444242;" width="32.906" height="146.39"/>
</g>
<path style="fill:#333333;" d="M179.662,220.226c0-12.085,9.687-21.871,21.592-21.871c11.92,0,21.606,9.787,21.606,21.871
	c0,12.083-9.685,21.879-21.606,21.879C189.35,242.105,179.662,232.309,179.662,220.226z"/>
<path style="fill:#444242;" d="M239.559,492.923c5.437,0.288,10.921,0.443,16.451,0.443c5.53,0,11.016-0.154,16.455-0.443v-110.74
	h-32.906V492.923"/>
<path style="fill:#D37B93;" d="M256.012,386.843c-16.999,0-32.195-13.353-37.939-19.095c-5.767-5.763-19.18-21.031-19.18-38.286
	c0-14.116,7.031-24.846,19.796-30.217c8.509-3.58,19.322-5.04,37.323-5.04c18,0,28.812,1.46,37.323,5.04
	c12.765,5.371,19.796,16.102,19.796,30.217c0,17.255-13.414,32.523-19.18,38.286C288.207,373.49,273.011,386.843,256.012,386.843"/>
<path style="fill:#BDBDBF;" d="M256.024,493.366c-0.004,0-0.009,0-0.012,0l0,0C256.016,493.366,256.02,493.366,256.024,493.366
	 M410.859,445.776c-0.008,0.005-0.014,0.011-0.023,0.018C410.844,445.787,410.851,445.781,410.859,445.776 M411.098,445.595
	c-0.013,0.01-0.025,0.02-0.038,0.03C411.071,445.615,411.086,445.604,411.098,445.595 M411.338,445.412
	c-0.019,0.014-0.034,0.025-0.052,0.039C411.303,445.439,411.322,445.425,411.338,445.412 M411.573,445.234
	c-0.015,0.012-0.037,0.029-0.053,0.041C411.539,445.26,411.553,445.249,411.573,445.234 M411.807,445.056
	c-0.015,0.012-0.035,0.027-0.052,0.04C411.773,445.082,411.79,445.069,411.807,445.056 M412.041,444.877
	c-0.019,0.014-0.034,0.026-0.052,0.039C412.005,444.904,412.025,444.89,412.041,444.877 M412.248,444.719
	c-0.008,0.005-0.015,0.012-0.023,0.018C412.231,444.731,412.24,444.724,412.248,444.719 M412.92,444.2
	c-0.026,0.02-0.053,0.041-0.079,0.06C412.867,444.241,412.894,444.22,412.92,444.2 M413.159,444.015
	c-0.034,0.026-0.069,0.054-0.103,0.08C413.09,444.068,413.126,444.04,413.159,444.015 M413.398,443.828
	c-0.036,0.029-0.072,0.056-0.109,0.084C413.326,443.885,413.363,443.856,413.398,443.828 M413.636,443.643
	c-0.036,0.029-0.075,0.058-0.111,0.087C413.56,443.702,413.6,443.67,413.636,443.643 M413.878,443.453
	c-0.038,0.031-0.078,0.06-0.116,0.091C413.802,443.513,413.838,443.485,413.878,443.453 M414.122,443.261
	c-0.044,0.034-0.087,0.068-0.13,0.102C414.034,443.331,414.079,443.295,414.122,443.261 M414.361,443.072
	c-0.044,0.035-0.088,0.069-0.132,0.104C414.275,443.142,414.316,443.108,414.361,443.072 M414.604,442.88
	c-0.046,0.036-0.092,0.072-0.138,0.11C414.513,442.953,414.558,442.918,414.604,442.88 M414.877,442.664
	c-0.059,0.047-0.114,0.091-0.173,0.137C414.759,442.758,414.82,442.709,414.877,442.664 M415.174,442.427
	c-0.08,0.064-0.158,0.126-0.237,0.189C415.016,442.554,415.094,442.491,415.174,442.427 M415.411,442.239
	c-0.061,0.049-0.128,0.103-0.19,0.151C415.284,442.34,415.347,442.289,415.411,442.239 M415.646,442.05
	c-0.052,0.041-0.103,0.082-0.155,0.124C415.543,442.134,415.594,442.092,415.646,442.05 M415.886,441.857
	c-0.048,0.039-0.102,0.082-0.151,0.122C415.784,441.939,415.837,441.897,415.886,441.857 M416.12,441.668
	c-0.052,0.042-0.097,0.078-0.148,0.12C416.021,441.749,416.07,441.708,416.12,441.668 M416.357,441.476
	c-0.048,0.04-0.095,0.078-0.144,0.116C416.261,441.554,416.307,441.516,416.357,441.476 M416.589,441.288
	c-0.046,0.037-0.094,0.077-0.14,0.114C416.496,441.364,416.543,441.325,416.589,441.288 M416.827,441.094
	c-0.048,0.039-0.093,0.076-0.141,0.115C416.733,441.172,416.781,441.131,416.827,441.094 M417.066,440.898
	c-0.048,0.039-0.098,0.079-0.145,0.118C416.97,440.977,417.018,440.938,417.066,440.898 M417.316,440.693
	c-0.056,0.046-0.106,0.088-0.162,0.133C417.208,440.783,417.263,440.737,417.316,440.693 M417.621,440.443
	c-0.078,0.065-0.155,0.127-0.233,0.192C417.467,440.57,417.542,440.508,417.621,440.443 M346.727,63.304
	c0.003,0.001,0.007,0.003,0.01,0.004C346.732,63.307,346.729,63.306,346.727,63.304 M256.012,41.562L256.012,41.562
	c31.114,0,61.568,7.281,90.513,21.642l0,0l0,0C317.581,48.843,287.126,41.562,256.012,41.562 M477.52,40.053
	c0.001,0.003,0,0.002,0.001,0.005L477.52,40.053 M477.434,39.696c0.005,0.023,0.011,0.047,0.016,0.069
	C477.446,39.743,477.44,39.717,477.434,39.696 M477.35,39.342c0.008,0.031,0.015,0.063,0.022,0.093
	C477.365,39.406,477.357,39.37,477.35,39.342 M477.264,38.984c0.01,0.042,0.019,0.078,0.029,0.12
	C477.284,39.064,477.274,39.022,477.264,38.984 M477.179,38.63c0.011,0.045,0.021,0.086,0.032,0.132
	C477.199,38.714,477.19,38.676,477.179,38.63 M477.092,38.273c0.011,0.045,0.023,0.097,0.034,0.143
	C477.115,38.369,477.103,38.319,477.092,38.273 M477.005,37.918c0.012,0.049,0.024,0.1,0.036,0.149
	C477.029,38.017,477.017,37.968,477.005,37.918 M476.919,37.561c0.013,0.053,0.025,0.104,0.038,0.157
	C476.945,37.668,476.931,37.612,476.919,37.561 M476.831,37.208c0.013,0.053,0.026,0.105,0.04,0.158
	C476.857,37.312,476.844,37.262,476.831,37.208 M476.742,36.846c0.014,0.057,0.029,0.114,0.043,0.171
	C476.77,36.959,476.756,36.903,476.742,36.846 M476.653,36.49c0.014,0.057,0.03,0.118,0.044,0.175
	C476.683,36.608,476.667,36.547,476.653,36.49 M476.563,36.128c0.015,0.06,0.032,0.125,0.046,0.186
	C476.594,36.249,476.58,36.192,476.563,36.128 M476.473,35.77c0.016,0.065,0.032,0.126,0.048,0.19
	C476.505,35.896,476.49,35.835,476.473,35.77 M476.377,35.39c0.019,0.072,0.037,0.147,0.055,0.218
	C476.413,35.532,476.397,35.464,476.377,35.39 M455.918,23.104c-0.516,0.141-1.312,0.364-2.356,0.666
	C454.606,23.468,455.403,23.245,455.918,23.104 M472.117,18.646l-16.174,4.451l0,0l0,0L472.117,18.646l4.137,16.258
	c0.03,0.117,0.06,0.236,0.09,0.353c-0.03-0.118-0.059-0.235-0.09-0.353L472.117,18.646"/>
<path style="fill:#BD7F00;" d="M256.012,41.562v252.643c18,0,28.812,1.46,37.323,5.04c12.765,5.371,19.796,16.102,19.796,30.217
	c0,17.255-13.414,32.523-19.18,38.286c-3.786,3.784-11.677,10.875-21.485,15.269v109.905c53.04-2.818,101.395-19.253,138.371-47.13
	c0.008-0.005,0.014-0.011,0.023-0.018c0.067-0.05,0.134-0.101,0.201-0.151c0.013-0.01,0.025-0.02,0.038-0.03
	c0.065-0.049,0.125-0.094,0.189-0.144c0.019-0.014,0.034-0.025,0.052-0.04c0.059-0.045,0.122-0.092,0.181-0.138
	c0.015-0.012,0.037-0.029,0.053-0.041c0.059-0.045,0.123-0.094,0.183-0.139c0.015-0.012,0.035-0.027,0.052-0.039
	c0.063-0.047,0.121-0.092,0.182-0.139c0.019-0.014,0.034-0.026,0.052-0.04c0.063-0.047,0.122-0.093,0.183-0.14
	c0.008-0.005,0.015-0.012,0.023-0.018c0.197-0.151,0.397-0.306,0.593-0.457c0.026-0.02,0.053-0.041,0.079-0.06
	c0.047-0.036,0.089-0.069,0.136-0.105c0.034-0.026,0.069-0.054,0.103-0.08c0.045-0.035,0.086-0.067,0.131-0.102
	c0.036-0.029,0.072-0.056,0.109-0.084c0.043-0.033,0.083-0.065,0.126-0.099c0.036-0.029,0.075-0.058,0.111-0.087
	c0.043-0.033,0.083-0.066,0.126-0.099c0.038-0.031,0.078-0.06,0.116-0.091c0.037-0.03,0.076-0.059,0.114-0.089
	c0.044-0.034,0.087-0.068,0.131-0.102c0.035-0.027,0.072-0.057,0.109-0.086c0.044-0.034,0.088-0.069,0.132-0.104
	c0.035-0.027,0.069-0.055,0.104-0.082c0.046-0.036,0.092-0.072,0.138-0.11c0.033-0.026,0.066-0.053,0.099-0.079
	c0.059-0.047,0.114-0.091,0.173-0.137c0.021-0.016,0.038-0.031,0.06-0.047c0.08-0.064,0.158-0.126,0.237-0.189
	c0.014-0.011,0.033-0.026,0.047-0.037c0.061-0.049,0.128-0.103,0.19-0.151c0.029-0.022,0.053-0.042,0.08-0.065
	c0.052-0.041,0.103-0.082,0.155-0.124c0.031-0.024,0.059-0.047,0.089-0.071c0.048-0.039,0.103-0.082,0.151-0.122
	c0.031-0.024,0.056-0.045,0.086-0.069c0.052-0.042,0.097-0.078,0.148-0.12c0.031-0.024,0.063-0.05,0.093-0.076
	c0.048-0.039,0.095-0.078,0.144-0.116c0.031-0.024,0.063-0.05,0.093-0.076c0.046-0.037,0.094-0.077,0.14-0.114
	c0.033-0.026,0.065-0.053,0.097-0.079c0.048-0.039,0.093-0.076,0.141-0.115c0.033-0.026,0.061-0.05,0.094-0.077
	c0.048-0.039,0.098-0.079,0.145-0.118c0.03-0.024,0.057-0.047,0.088-0.071c0.056-0.046,0.106-0.088,0.162-0.133
	c0.023-0.019,0.049-0.041,0.072-0.059c0.078-0.065,0.155-0.127,0.233-0.192l0,0c11.366-9.372,21.368-19.691,29.978-30.861
	l-85.624-19.881l7.442-32.054l96.688,22.453l0,0l-0.011-0.002c13.214-26.426,20.051-56.315,20.111-88.822l0.004-0.001l0,0
	l-116.794,27.121l-7.441-32.054l121.92-28.311c-2.472-17.709-6.888-35.295-13.122-52.364l0,0
	c-5.754-15.762-13.048-31.085-21.758-45.658c-8.53-14.271-18.418-27.824-29.555-40.372c-9.949-11.209-20.6-21.323-31.89-30.29
	c-8.964-7.119-18.326-13.516-28.057-19.16c-0.003,0.003-0.009,0.009-0.013,0.012c-4.19-2.431-8.441-4.737-12.764-6.889
	c-0.003-0.001-0.007-0.003-0.01-0.004c-0.067-0.034-0.135-0.067-0.202-0.1l0,0c-28.945-14.361-59.398-21.642-90.515-21.642"/>
<g>
	<polyline style="fill:#323132;" points="504.568,253.229 504.568,253.229 483.896,258.03 483.896,258.03 361.976,286.341 
		369.42,318.394 486.213,291.273 512.012,285.282 504.568,253.229 	"/>
	<polyline style="fill:#323132;" points="369.42,357.646 361.976,389.699 447.6,409.582 447.6,409.581 504.568,422.81 
		512.012,390.758 466.108,380.098 369.42,357.646 	"/>
</g>
<path style="fill:#333333;" d="M310.607,198.185c-12.019,0-21.769,9.868-21.769,22.043s9.75,22.043,21.769,22.043
	c12.005,0,21.755-9.868,21.755-22.043C332.361,208.052,322.611,198.185,310.607,198.185"/>
<path style="fill:#323132;" d="M272.465,383.018c-5.073,2.273-10.658,3.825-16.453,3.825v106.523c0.004,0,0.009,0,0.012,0
	c2.548,0,5.083-0.043,7.612-0.104c0.466-0.012,0.931-0.025,1.396-0.04c2.485-0.071,4.963-0.168,7.43-0.298h0.002V383.018"/>
<path style="fill:#9D5B6E;" d="M256.012,294.204v92.639c5.795,0,11.38-1.552,16.453-3.825c9.808-4.395,17.7-11.485,21.485-15.269
	c5.766-5.763,19.18-21.031,19.18-38.286c0-14.116-7.031-24.846-19.796-30.217C284.824,295.664,274.011,294.204,256.012,294.204"/>
<g>
</g>
<g>
</g>
<g>
</g>
<g>
</g>
<g>
</g>
<g>
</g>
<g>
</g>
<g>
</g>
<g>
</g>
<g>
</g>
<g>
</g>
<g>
</g>
<g>
</g>
<g>
</g>
<g>
</g>
</svg>
