<svg id="Capa_1" enable-background="new 0 0 512.001 512.001" height="512" viewBox="0 0 512.001 512.001" width="512" xmlns="http://www.w3.org/2000/svg"><path d="m257 15.001-204.143 150.421 29.201 332.89c.679 7.746 7.166 13.689 14.942 13.689h320c7.776 0 14.263-5.943 14.942-13.689l29.201-332.89z" fill="#b47840"/><path d="m256 15.738v496.263h161c7.776 0 14.263-5.943 14.942-13.689l29.201-332.89-204.143-150.421z" fill="#915d26"/><path d="m342 512.001h-170v-143.916c0-46.796 37.367-85.626 84.161-86.08 47.252-.458 85.839 37.847 85.839 84.996z" fill="#ffe646"/><path d="m256.02 282.006c-.008.008-.012.012-.02.02v229.975h86v-145c0-47.196-38.664-85.531-85.98-84.995z" fill="#fad21e"/><path d="m338.213 185.001 19.394-19.394c5.858-5.858 5.858-15.355 0-21.213-5.857-5.858-15.355-5.858-21.213 0l-25.606 25.606h-107.575l-25.606-25.606c-5.857-5.858-15.355-5.858-21.213 0s-5.858 15.355 0 21.213l19.394 19.394-19.394 19.394c-5.858 5.858-5.858 15.355 0 21.213 2.929 2.929 6.768 4.394 10.606 4.394s7.678-1.464 10.606-4.394l25.606-25.606h107.574l25.606 25.606c2.929 2.929 6.768 4.394 10.606 4.394s7.678-1.464 10.606-4.394c5.858-5.858 5.858-15.355 0-21.213z" fill="#e8f2f8"/><path d="m145 512.001h-130c-4.822 0-9.35-2.318-12.168-6.229-2.819-3.912-3.586-8.94-2.062-13.514l20-60c2.042-6.125 7.774-10.256 14.23-10.256h90c6.457 0 12.188 4.131 14.23 10.256l20 60c1.524 4.574.757 9.603-2.062 13.514-2.818 3.911-7.346 6.229-12.168 6.229z" fill="#fa7878"/><path d="m336.394 225.607c2.929 2.929 6.768 4.394 10.606 4.394s7.678-1.464 10.606-4.394c5.858-5.858 5.858-15.355 0-21.213l-19.394-19.394 19.394-19.394c5.858-5.858 5.858-15.355 0-21.213-5.857-5.858-15.355-5.858-21.213 0l-25.606 25.606h-54.787v30h54.787z" fill="#d2e1e6"/><path d="m496.988 206.844c-3.091 0-6.208-.951-8.886-2.925l-231.102-170.286-231.102 170.286c-6.668 4.914-16.06 3.492-20.974-3.178-4.915-6.669-3.492-16.06 3.178-20.974l240-176.842c5.291-3.899 12.505-3.899 17.796 0l240 176.842c6.669 4.914 8.092 14.304 3.178 20.974-2.94 3.991-7.484 6.103-12.088 6.103z" fill="#fa7878"/><path d="m505.898 179.767-240-176.842c-2.928-2.158-6.444-3.116-9.898-2.885v34.33l1-.737 231.102 170.286c2.679 1.974 5.795 2.925 8.886 2.925 4.604 0 9.147-2.112 12.087-6.103 4.915-6.669 3.493-16.06-3.177-20.974z" fill="#f44650"/></svg>