<svg id="Capa_1" enable-background="new 0 0 512.001 512.001" height="512" viewBox="0 0 512.001 512.001" width="512" xmlns="http://www.w3.org/2000/svg"><path d="m505.898 179.767-49.997-36.84c-.001-.001-.002-.001-.003-.002l-190-140c-5.291-3.899-12.505-3.899-17.796 0l-190 140c-.001.001-.002.001-.003.002l-49.997 36.84c-6.669 4.914-8.092 14.304-3.178 20.974 4.914 6.669 14.305 8.092 20.974 3.178l28.494-20.996 20.972 239.078h-40.364c-6.457 0-12.188 4.131-14.23 10.256l-20 60c-1.524 4.574-.757 9.603 2.062 13.514 2.819 3.912 7.347 6.229 12.168 6.229h402c7.776 0 14.263-5.943 14.942-13.689l27.666-315.389 28.494 20.996c2.679 1.974 5.795 2.925 8.886 2.925 4.604 0 9.147-2.112 12.087-6.103 4.915-6.668 3.493-16.059-3.177-20.973zm-470.086 302.234 10-30h45.695.018 22.664l10 30zm166.188 0v-115c0-30.327 24.673-55 55-55s55 24.673 55 55v115zm229.321-319.921-28.063 319.92h-61.258v-115c0-46.869-38.131-85-85-85s-85 38.131-85 85v115h-16.188l-16.581-49.744c-2.042-6.125-7.774-10.256-14.23-10.256h-19.522l-22.8-259.92 174.321-128.447z"/><path d="m156.394 225.607c2.929 2.929 6.768 4.394 10.606 4.394s7.678-1.464 10.606-4.394l25.606-25.606h107.574l25.606 25.606c2.929 2.929 6.768 4.394 10.606 4.394s7.678-1.464 10.606-4.394c5.858-5.858 5.858-15.355 0-21.213l-19.394-19.394 19.394-19.394c5.858-5.858 5.858-15.355 0-21.213-5.857-5.858-15.355-5.858-21.213 0l-25.606 25.606h-107.572l-25.606-25.606c-5.857-5.858-15.355-5.858-21.213 0s-5.858 15.355 0 21.213l19.394 19.394-19.394 19.394c-5.858 5.858-5.858 15.355 0 21.213z"/></svg>