<?xml version="1.0" standalone="no"?>
<!DOCTYPE svg PUBLIC "-//W3C//DTD SVG 20010904//EN"
 "http://www.w3.org/TR/2001/REC-SVG-20010904/DTD/svg10.dtd">
<svg version="1.0" xmlns="http://www.w3.org/2000/svg"
 width="400.000000pt" height="400.000000pt" viewBox="0 0 400.000000 400.000000"
 preserveAspectRatio="xMidYMid meet">

<g transform="translate(0.000000,400.000000) scale(0.100000,-0.100000)"
fill="#000000" stroke="none">
<path d="M820 3362 l0 -78 -54 -47 c-30 -26 -62 -47 -70 -47 -9 0 -13 -6 -10
-14 3 -8 -3 -23 -13 -33 -10 -10 -27 -35 -38 -56 l-20 -37 -85 -2 -85 -2 78
-3 c42 -2 77 -5 77 -7 0 -2 -5 -17 -11 -35 -11 -30 -12 -31 -77 -33 l-67 -2
58 -3 c31 -2 57 -8 57 -12 0 -19 -23 -71 -31 -71 -5 0 -8 -3 -7 -7 1 -5 -1
-17 -5 -29 -5 -15 -15 -20 -35 -19 -18 2 -20 1 -4 -2 27 -5 28 -18 2 -66 -29
-54 -27 -78 7 -75 23 3 28 -2 34 -27 6 -27 7 -28 8 -5 l1 25 20 -25 c26 -33
20 -46 -17 -42 -17 2 -37 -3 -44 -11 -8 -7 -21 -17 -29 -20 -8 -3 14 -6 50 -5
l65 2 3 -32 3 -32 -65 0 -66 0 0 -175 0 -175 64 0 c42 0 66 4 69 13 3 6 6 -9
6 -35 l1 -48 -70 0 c-69 0 -70 -1 -70 -26 0 -26 0 -26 75 -22 41 2 76 0 77 -4
5 -30 0 -33 -77 -39 l-80 -5 86 -2 85 -2 14 -35 c7 -19 19 -36 27 -39 10 -4
13 -41 13 -160 0 -92 4 -157 10 -161 6 -4 11 48 12 147 l2 153 3 -132 c2 -77
8 -133 13 -133 6 0 10 7 10 16 0 8 4 12 10 9 13 -8 20 27 23 130 3 114 21 119
25 8 l3 -83 89 0 c122 0 115 -18 -7 -23 l-98 -3 100 -2 c100 -2 101 -2 118
-31 9 -16 17 -33 17 -39 0 -5 18 -29 40 -53 22 -24 40 -47 40 -51 0 -4 14 -22
30 -40 17 -18 30 -37 30 -43 0 -6 9 -16 20 -23 11 -7 20 -19 20 -27 0 -8 6
-15 13 -15 27 0 47 -36 47 -83 l0 -47 50 0 c47 0 54 -4 90 -42 30 -31 40 -49
40 -75 0 -43 20 -43 21 0 l2 32 7 -35 c7 -31 7 -32 9 -7 1 29 8 33 31 16 11
-8 12 -12 3 -16 -17 -6 -17 -26 -1 -21 7 3 22 -16 34 -41 11 -25 35 -61 52
-79 17 -19 29 -39 25 -48 -3 -9 1 -14 12 -14 9 0 34 -18 56 -40 l39 -39 2 -93
2 -93 3 88 c2 48 8 87 13 87 6 0 11 -39 12 -87 l2 -88 3 82 c3 56 8 83 16 83
9 0 11 -22 9 -80 -2 -52 0 -80 7 -80 6 0 11 21 11 49 0 28 5 53 11 57 6 3 9
15 6 25 -8 30 8 22 37 -19 17 -24 26 -51 26 -75 0 -30 4 -37 19 -37 12 0 21 8
24 23 l4 22 2 -22 c1 -16 7 -23 21 -23 11 0 20 6 20 13 0 9 2 9 8 0 5 -7 40
-11 99 -11 51 0 90 5 87 9 -3 5 0 9 5 9 6 0 11 -6 12 -12 0 -7 4 -3 9 10 12
27 30 29 30 2 0 -14 7 -20 21 -20 17 0 20 5 18 37 -2 36 26 103 44 103 4 0 7
-31 7 -70 0 -68 1 -70 25 -70 24 0 25 2 25 70 0 92 18 90 23 -2 l3 -73 2 76
c2 70 4 77 27 87 l25 12 0 -85 c0 -50 4 -85 10 -85 6 0 10 38 10 94 0 88 1 95
24 110 46 30 113 105 136 153 48 101 69 138 79 141 7 2 10 -2 9 -8 -2 -7 3
-15 10 -17 8 -3 12 6 12 25 0 20 6 33 18 36 9 4 27 28 40 54 12 26 20 39 17
30 -2 -10 0 -18 5 -18 5 0 10 10 12 22 2 12 8 23 14 25 7 2 10 -6 7 -22 -3
-15 -1 -25 6 -25 6 0 11 15 11 34 0 19 6 36 13 39 9 3 11 -8 9 -44 -4 -45 -2
-49 18 -49 20 0 21 4 19 59 l-2 59 69 63 c38 35 71 67 72 72 2 4 13 7 23 7 13
0 18 4 13 12 -4 6 -1 16 7 22 8 6 26 34 41 61 l27 50 263 5 c145 3 217 7 161
8 l-103 2 0 150 c0 109 3 151 13 157 7 4 17 22 22 38 10 29 12 30 88 33 96 4
102 22 7 22 -66 0 -70 1 -70 23 0 21 3 22 70 19 65 -3 70 -2 70 17 0 19 -6 21
-66 21 l-65 0 3 33 c3 32 3 32 66 35 54 3 62 6 62 22 0 18 -7 20 -60 20 -62 0
-69 6 -54 44 5 12 20 16 60 16 47 0 54 2 54 20 0 17 -7 20 -50 20 l-50 0 1 73
c0 39 3 66 6 60 3 -8 23 -13 49 -13 l44 0 0 50 0 50 -45 0 -45 0 0 38 c0 61
12 68 51 32 l34 -31 3 33 c2 18 8 36 14 39 6 4 15 33 19 64 6 45 4 61 -7 72
-8 8 -14 20 -14 26 0 21 -56 132 -94 185 -20 29 -36 55 -36 59 0 5 -9 14 -20
21 -11 7 -20 17 -20 22 0 11 -34 63 -57 88 -7 7 -13 20 -13 28 0 8 -6 14 -13
14 -7 0 -33 20 -57 45 -42 43 -44 47 -41 100 2 50 0 55 -18 55 -18 0 -21 -6
-21 -40 0 -31 -3 -38 -15 -34 -9 4 -15 20 -16 43 l-1 36 -8 -30 -8 -30 -1 28
c-1 32 -21 37 -22 5 -1 -22 -1 -22 -9 2 -5 17 -8 19 -9 8 -1 -10 -5 -18 -11
-18 -5 0 -7 7 -4 15 7 18 -12 20 -19 3 -4 -10 -8 -10 -14 -2 -10 14 -236 17
-227 3 3 -5 0 -9 -5 -9 -6 0 -11 5 -11 10 0 6 -4 10 -10 10 -5 0 -10 -7 -10
-15 0 -8 -4 -15 -10 -15 -5 0 -10 7 -10 15 0 8 -4 15 -10 15 -5 0 -10 -9 -10
-20 0 -27 -18 -25 -23 3 -4 19 -4 18 -6 -5 0 -16 -5 -28 -10 -28 -4 0 -6 11
-3 25 2 15 0 25 -7 25 -6 0 -11 -16 -11 -35 0 -19 -4 -35 -10 -35 -5 0 -10 16
-10 35 0 24 -5 35 -14 35 -11 0 -16 -15 -18 -52 -2 -43 -7 -55 -26 -64 -13 -6
-23 -14 -22 -18 1 -4 0 -12 -3 -19 -10 -27 -20 7 -25 78 l-5 75 -33 0 -34 0 0
-91 c0 -57 -4 -88 -10 -84 -5 3 -10 44 -10 91 0 110 -19 112 -22 2 l-2 -83 -6
85 -6 85 -2 -77 c-1 -44 -6 -78 -12 -78 -6 0 -11 34 -12 78 l-2 77 -3 -72 c-5
-93 -23 -95 -23 -3 0 90 -19 93 -22 3 l-2 -68 -6 70 -6 70 -2 -63 c-3 -83 -25
-80 -33 4 l-6 59 -1 -52 c-2 -67 -22 -70 -22 -3 0 28 -4 50 -10 50 -5 0 -10
-20 -10 -45 0 -25 -4 -45 -10 -45 -5 0 -10 20 -10 45 0 25 -4 45 -10 45 -5 0
-10 -18 -10 -40 0 -22 -4 -40 -10 -40 -5 0 -10 18 -10 40 0 22 -4 40 -10 40
-5 0 -10 -16 -10 -35 0 -19 -4 -35 -10 -35 -5 0 -10 16 -10 35 0 19 -4 35 -10
35 -5 0 -10 -14 -10 -31 0 -24 -4 -30 -17 -27 -13 2 -17 11 -15 31 3 23 0 27
-22 27 -21 0 -26 -5 -26 -25 0 -23 -4 -25 -45 -25 -41 0 -45 2 -45 25 0 37
-38 35 -42 -2 -2 -17 -10 -29 -20 -31 -14 -3 -18 3 -18 27 0 21 -5 31 -15 31
-10 0 -15 -11 -15 -35 0 -28 -4 -35 -20 -35 -16 0 -20 7 -20 35 0 29 -4 35
-21 35 -19 0 -21 -5 -17 -40 2 -28 0 -40 -9 -40 -8 0 -13 14 -13 40 0 22 -4
40 -10 40 -5 0 -10 -20 -10 -45 0 -25 -4 -45 -10 -45 -5 0 -10 20 -10 45 0 25
-4 45 -10 45 -5 0 -10 -22 -10 -49 0 -71 -18 -74 -23 -4 l-3 58 -2 -57 c-3
-74 -22 -76 -22 -3 0 30 -4 55 -10 55 -6 0 -10 -28 -10 -65 0 -87 -19 -84 -22
3 l-2 67 -6 -75 -6 -75 -2 73 c-3 96 -22 94 -22 -3 0 -43 -4 -75 -10 -75 -6 0
-10 32 -10 75 0 43 -4 75 -10 75 -6 0 -10 -33 -10 -80 0 -47 -4 -80 -10 -80
-6 0 -10 33 -10 80 0 79 0 80 -26 80 l-25 0 3 -85 c3 -82 2 -85 -19 -87 -13 0
-29 -1 -35 -2 -9 -1 -15 26 -19 89 l-5 90 -2 -82 c-1 -46 -5 -83 -9 -83 -5 0
-7 36 -5 80 2 52 0 80 -7 80 -7 0 -12 -30 -13 -77 l-2 -78 -6 80 -6 80 -2 -72
c-1 -41 -6 -73 -12 -73 -6 0 -11 32 -12 73 l-2 72 -3 -67 c-2 -38 -8 -68 -13
-68 -6 0 -11 30 -12 68 l-2 67 -3 -63 c-5 -76 -23 -74 -23 4 0 30 -4 54 -10
54 -5 0 -10 -22 -10 -50 0 -27 -3 -50 -7 -50 -5 0 -6 22 -5 50 4 45 2 50 -17
50 -18 0 -21 -6 -21 -45 0 -36 -3 -45 -18 -45 -14 0 -17 7 -14 45 4 44 4 45
-27 45 -30 0 -31 -2 -31 -40 l0 -40 -75 0 -75 0 0 40 c0 38 -1 40 -31 40 -31
0 -31 -1 -27 -45 2 -25 0 -45 -4 -45 -5 0 -8 20 -8 45 0 33 -4 45 -14 45 -11
0 -16 -15 -19 -52 l-3 -53 -2 53 c-2 40 -6 52 -18 52 -12 0 -15 -11 -13 -55 1
-30 0 -58 -4 -62 -4 -3 -7 21 -7 55 0 84 -20 79 -22 -5 l-2 -68 -6 70 -6 70
-2 -72 c-3 -94 -22 -97 -22 -3 0 40 -4 70 -10 70 -6 0 -10 -33 -10 -78z m1473
-47 c53 -14 142 -41 199 -60 69 -24 121 -35 159 -35 44 0 71 -7 125 -34 92
-46 120 -76 176 -187 56 -111 84 -232 91 -389 6 -122 45 -302 88 -406 16 -39
29 -75 27 -80 -1 -5 4 -26 11 -48 22 -64 9 -285 -21 -368 -37 -101 -85 -172
-166 -250 -66 -62 -154 -128 -173 -128 -3 0 -9 27 -12 60 -6 70 -41 137 -90
174 -70 52 -118 69 -213 74 l-90 5 -24 43 c-27 52 -91 114 -152 146 -37 20
-57 23 -148 23 -94 -1 -111 -3 -162 -28 -53 -26 -135 -106 -166 -162 -6 -12
-28 -23 -59 -30 -42 -9 -48 -13 -48 -35 0 -21 4 -24 25 -21 56 8 73 6 84 -14
52 -93 135 -146 258 -165 100 -15 201 -1 277 37 51 25 60 35 95 101 l38 74 86
-6 c107 -8 170 -40 222 -112 32 -44 35 -54 34 -114 -2 -77 -12 -106 -54 -153
-51 -58 -124 -81 -252 -79 -69 0 -125 7 -155 17 -82 28 -156 67 -193 101 l-35
33 -55 -50 c-105 -97 -194 -125 -365 -116 -136 7 -213 32 -250 81 -34 44 -40
83 -25 163 11 58 19 74 54 108 23 23 52 48 66 57 l25 17 -31 0 c-21 1 -43 -10
-73 -35 -48 -41 -75 -90 -86 -151 -4 -24 -12 -43 -17 -43 -6 0 -60 50 -120
112 -93 95 -116 125 -157 208 -96 190 -103 294 -30 461 30 70 52 152 68 260
10 60 51 256 84 394 33 143 130 365 183 419 43 44 74 53 126 35 55 -18 165 -1
291 46 107 40 265 72 367 74 42 1 101 -8 163 -24z m969 -1360 c11 -21 30 -47
42 -56 18 -14 20 -25 18 -73 l-4 -56 -54 0 c-47 0 -54 2 -54 20 0 17 7 20 45
20 49 0 50 1 35 31 -7 12 -21 19 -41 19 l-30 0 2 63 c1 34 -1 73 -5 87 -7 24
-7 25 9 5 9 -11 26 -38 37 -60z m-2342 -71 l0 -76 -35 4 c-19 2 -35 0 -35 -4
0 -4 18 -8 39 -8 25 0 41 -5 45 -15 4 -12 -5 -15 -54 -15 -33 0 -60 -4 -60
-10 0 -6 28 -10 65 -10 51 0 65 -3 65 -15 0 -12 -16 -15 -80 -15 -73 0 -91 6
-73 23 3 4 5 36 4 72 -3 75 16 90 22 18 3 -47 3 -47 5 10 1 31 7 57 12 57 6 0
10 -12 10 -26 0 -14 4 -23 10 -19 6 3 10 18 10 32 0 22 33 73 47 73 2 0 3 -34
3 -76z m2530 -114 l0 -130 -140 0 c-87 0 -140 4 -140 10 0 8 158 16 248 13 9
-1 12 28 12 111 0 99 4 126 17 126 2 0 3 -58 3 -130z m-2722 3 c-1 -110 -5
-97 -10 35 -2 39 0 72 5 72 4 0 6 -48 5 -107z m2662 0 l0 -98 -106 3 c-128 4
-127 20 1 25 l90 3 -92 2 c-86 2 -91 3 -86 22 5 18 14 20 74 20 l69 0 0 60 c0
57 1 60 25 60 25 0 25 0 25 -97z m-1143 -644 c29 -11 37 -46 30 -133 -7 -79
-45 -187 -79 -224 -71 -77 -238 -67 -298 17 -33 47 -60 146 -60 221 0 75 15
105 59 115 16 3 50 19 75 36 26 16 48 29 50 29 2 0 -1 -19 -6 -42 -13 -56 -5
-178 13 -188 7 -5 21 -4 31 1 16 8 18 24 18 120 0 61 5 119 10 129 10 18 15
17 73 -26 34 -26 72 -50 84 -55z"/>
<path d="M1483 2473 c-33 -6 -111 -80 -135 -127 -14 -27 -23 -66 -26 -117 -8
-134 36 -204 155 -249 42 -16 69 -20 98 -15 58 9 122 42 147 77 40 58 63 221
37 271 -14 28 -59 76 -81 88 -16 8 -17 7 -9 -14 12 -31 -2 -92 -26 -119 -74
-82 -203 -52 -203 47 0 30 7 44 38 74 21 20 49 44 62 53 13 10 22 20 19 22 -8
8 -54 14 -76 9z"/>
<path d="M2500 2428 c-83 -50 -104 -96 -105 -223 0 -82 4 -106 20 -135 59
-101 255 -108 324 -12 27 39 40 101 41 194 0 69 -13 129 -29 128 -3 -1 -18
-27 -33 -59 -29 -66 -58 -90 -116 -98 -34 -5 -41 -1 -70 31 -43 49 -45 110 -6
150 15 14 32 26 38 26 7 0 21 7 32 15 18 14 17 14 -11 15 -17 0 -55 -14 -85
-32z"/>
<path d="M2492 848 c-8 -8 -12 -47 -12 -110 0 -79 3 -98 14 -98 12 0 15 22 18
110 2 61 1 110 -2 110 -4 0 -11 -5 -18 -12z"/>
<path d="M2397 783 c-11 -10 -8 -143 3 -143 6 0 10 32 10 75 0 75 -1 81 -13
68z"/>
</g>
</svg>
